{"title":"Naruto Episodes 1-19 Condensed","uid":7914055,"size":6985182217,"categoryP":"video","categoryS":"tv_shows","magnet":"?xt=urn:btih:7cb1414eb2fdddc521d5fdc6b9e3248578f2d42d&amp;dn=Naruto+Episodes+1-19+Condensed&amp;tr=udp%3A%2F%2Ftracker.openbittorrent.com%3A80&amp;tr=udp%3A%2F%2Fopen.demonii.com%3A1337&amp;tr=udp%3A%2F%2Ftracker.coppersurfer.tk%3A6969&amp;tr=udp%3A%2F%2Fexodus.desync.com%3A6969","seeders":0,"leechers":0,"uploader":"snow_lightning","files":1,"time":1355297467,"description":"Episodes 1-19 Condensed with the intros and outros removed.\nFixed intra-episode retakes.\n\nYou'll probably spot a few jumping frames.  \n\nGeneral\nComplete name                            : C:UsersArtDesktopNaruto Arc 1.mp4\nFormat                                   : MPEG-4\nFormat profile                           : Base Media\nCodec ID                                 : isom\nFile size                                : 6.51 GiB\nDuration                                 : 5h 53mn\nOverall bit rate mode                    : Variable\nOverall bit rate                         : 2 636 Kbps\nRecorded date                            : 2012-12-11T19:20:06-08:00\nWriting application                      : Lavf53.18.0\n\nVideo\nID                                       : 1\nFormat                                   : AVC\nFormat/Info                              : Advanced Video Codec\nFormat profile                           : &lt;a class=&quot;__cf_email__&quot; href=&quot;/cdn-cgi/l/email-protection&quot; data-cfemail=&quot;41032032242d282f24010d726f71&quot;&gt;[email&amp;#160;protected]&lt;/a&gt;&lt;script cf-hash='f9e31' type=&quot;text/javascript&quot;&gt;\n/* &lt;![CDATA[ */!function(){try{var t=&quot;currentScript&quot;in document?document.currentScript:function(){for(var t=document.getElementsByTagName(&quot;script&quot;),e=t.length;e--;)if(t[e].getAttribute(&quot;cf-hash&quot;))return t[e]}();if(t&amp;&amp;t.previousSibling){var e,r,n,i,c=t.previousSibling,a=c.getAttribute(&quot;data-cfemail&quot;);if(a){for(e=&quot;&quot;,r=parseInt(a.substr(0,2),16),n=2;a.length-n;n+=2)i=parseInt(a.substr(n,2),16)^r,e+=String.fromCharCode(i);e=document.createTextNode(e),c.parentNode.replaceChild(e,c)}}}catch(u){}}();/* ]]&gt; */&lt;/script&gt;\nFormat settings, CABAC                   : No\nFormat settings, ReFrames                : 1 frame\nFormat settings, GOP                     : M=1, N=12\nCodec ID                                 : avc1\nCodec ID/Info                            : Advanced Video Coding\nDuration                                 : 5h 53mn\nBit rate mode                            : Variable\nBit rate                                 : 2 501 Kbps\nMaximum bit rate                         : 5 000 Kbps\nWidth                                    : 640 pixels\nHeight                                   : 480 pixels\nDisplay aspect ratio                     : 4:3\nFrame rate mode                          : Constant\nFrame rate                               : 29.970 fps\nColor space                              : YUV\nChroma subsampling                       : 4:2:0\nBit depth                                : 8 bits\nScan type                                : Progressive\nBits/(Pixel*Frame)                       : 0.272\nStream size                              : 6.17 GiB (95%)\n\nAudio\nID                                       : 2\nFormat                                   : AAC\nFormat/Info                              : Advanced Audio Codec\nFormat profile                           : LC\nCodec ID                                 : 40\nDuration                                 : 5h 53mn\nBit rate mode                            : Constant\nBit rate                                 : 128 Kbps\nChannel(s)                               : 2 channels\nChannel positions                        : Front: L R\nSampling rate                            : 44.1 KHz\nCompression mode                         : Lossy\nStream size                              : 323 MiB (5%)\n\n","torrent":{"xt":"urn:btih:7cb1414eb2fdddc521d5fdc6b9e3248578f2d42d","amp;dn":"Naruto+Episodes+1-19+Condensed","amp;tr":["udp%3A%2F%2Ftracker.openbittorrent.com%3A80","udp%3A%2F%2Fopen.demonii.com%3A1337","udp%3A%2F%2Ftracker.coppersurfer.tk%3A6969","udp%3A%2F%2Fexodus.desync.com%3A6969"],"infoHash":"7cb1414eb2fdddc521d5fdc6b9e3248578f2d42d","infoHashBuffer":{"type":"Buffer","data":[124,177,65,78,178,253,221,197,33,213,253,198,185,227,36,133,120,242,212,45]},"announce":[],"urlList":[]}}